<?xml version="1.0" encoding="UTF-8" standalone="no"?>
<!-- Created with Inkscape (http://www.inkscape.org/) -->

<svg
   xmlns:osb="http://www.openswatchbook.org/uri/2009/osb"
   xmlns:dc="http://purl.org/dc/elements/1.1/"
   xmlns:cc="http://creativecommons.org/ns#"
   xmlns:rdf="http://www.w3.org/1999/02/22-rdf-syntax-ns#"
   xmlns:svg="http://www.w3.org/2000/svg"
   xmlns="http://www.w3.org/2000/svg"
   xmlns:sodipodi="http://sodipodi.sourceforge.net/DTD/sodipodi-0.dtd"
   xmlns:inkscape="http://www.inkscape.org/namespaces/inkscape"
   width="209.40527mm"
   height="146.71207mm"
   viewBox="0 0 209.40527 146.71207"
   version="1.1"
   id="svg8"
   inkscape:version="0.92.4 (5da689c313, 2019-01-14)"
   sodipodi:docname="kirstysk9s-dog-only-raw.svg"
   inkscape:export-filename="C:\Users\Trey\Pictures\kirstysk9s-light.png"
   inkscape:export-xdpi="96"
   inkscape:export-ydpi="96">
  <defs
     id="defs2">
    <linearGradient
       id="linearGradient4919"
       osb:paint="solid">
      <stop
         style="stop-color:#ffffff;stop-opacity:1;"
         offset="0"
         id="stop4917" />
    </linearGradient>
  </defs>
  <sodipodi:namedview
     id="base"
     pagecolor="#ffffff"
     bordercolor="#666666"
     borderopacity="1.0"
     inkscape:pageopacity="0.0"
     inkscape:pageshadow="2"
     inkscape:zoom="0.76095916"
     inkscape:cx="65.811804"
     inkscape:cy="246.8229"
     inkscape:document-units="mm"
     inkscape:current-layer="layer1"
     showgrid="false"
     inkscape:snap-grids="true"
     showguides="true"
     inkscape:guide-bbox="true"
     inkscape:window-width="1920"
     inkscape:window-height="1027"
     inkscape:window-x="-8"
     inkscape:window-y="-8"
     inkscape:window-maximized="1"
     fit-margin-top="0"
     fit-margin-left="0"
     fit-margin-right="0"
     fit-margin-bottom="0">
    <inkscape:grid
       type="xygrid"
       id="grid3684"
       originx="-0.29736063"
       originy="-63.9845" />
    <sodipodi:guide
       position="-60.313923,-346.65509"
       orientation="1,0"
       id="guide4923"
       inkscape:locked="false" />
  </sodipodi:namedview>
  <metadata
     id="metadata5">
    <rdf:RDF>
      <cc:Work
         rdf:about="">
        <dc:format>image/svg+xml</dc:format>
        <dc:type
           rdf:resource="http://purl.org/dc/dcmitype/StillImage" />
        <dc:title></dc:title>
      </cc:Work>
    </rdf:RDF>
  </metadata>
  <g
     inkscape:label="Layer 1"
     inkscape:groupmode="layer"
     id="layer1"
     transform="translate(-0.29736064,-86.303425)">
    <path
       style="fill:#008080;fill-opacity:1;fill-rule:nonzero;stroke:none;stroke-width:25.12177849;stroke-linecap:round;stroke-linejoin:bevel;stroke-miterlimit:4;stroke-dasharray:none;stroke-opacity:1"
       d=""
       id="path5580"
       inkscape:connector-curvature="0"
       transform="scale(0.26458333)" />
    <g
       id="g5856"
       transform="matrix(1,0,0,1.0048431,-242.90647,-495.1599)">
      <path
         d="m -390.39237,654.94946 a 8.7061062,7.7799249 0 0 1 -6.12892,7.43124 8.7061062,7.7799249 0 0 1 -9.7575,-3.03164 8.7061062,7.7799249 0 0 1 0.35209,-9.22609 8.7061062,7.7799249 0 0 1 9.96593,-2.43059"
         sodipodi:open="true"
         sodipodi:end="5.0810898"
         sodipodi:start="0"
         sodipodi:ry="7.7799249"
         sodipodi:rx="8.7061062"
         sodipodi:cy="654.94946"
         sodipodi:cx="-399.09848"
         sodipodi:type="arc"
         id="path5685"
         style="fill:#ffffff;fill-opacity:1;fill-rule:nonzero;stroke:none;stroke-width:4.74700022;stroke-linecap:round;stroke-linejoin:bevel;stroke-miterlimit:4;stroke-dasharray:none;stroke-opacity:1"
         transform="scale(-1,1)" />
      <path
         style="fill:#ffffff;fill-opacity:1;fill-rule:nonzero;stroke:none;stroke-width:4.74700022;stroke-linecap:round;stroke-linejoin:bevel;stroke-miterlimit:4;stroke-dasharray:none;stroke-opacity:1"
         id="path5687"
         sodipodi:type="arc"
         sodipodi:cx="298.32993"
         sodipodi:cy="654.94946"
         sodipodi:rx="8.7061062"
         sodipodi:ry="7.7799249"
         sodipodi:start="0"
         sodipodi:end="5.0810898"
         sodipodi:open="true"
         d="m 307.03603,654.94946 a 8.7061062,7.7799249 0 0 1 -6.12892,7.43124 8.7061062,7.7799249 0 0 1 -9.75749,-3.03164 8.7061062,7.7799249 0 0 1 0.35208,-9.22609 8.7061062,7.7799249 0 0 1 9.96594,-2.43059" />
      <path
         style="fill:#ffffff;fill-opacity:1;stroke:#000000;stroke-width:4.76249981;stroke-miterlimit:4;stroke-dasharray:none;stroke-opacity:1"
         id="path5689"
         sodipodi:type="arc"
         sodipodi:cx="348.6131"
         sodipodi:cy="641.22681"
         sodipodi:rx="59.098843"
         sodipodi:ry="50.289448"
         sodipodi:start="2.9198455"
         sodipodi:end="0.22143639"
         sodipodi:open="true"
         d="m 290.96131,652.28718 a 59.098843,50.289448 0 0 1 24.39835,-52.63356 59.098843,50.289448 0 0 1 66.49169,-0.009 59.098843,50.289448 0 0 1 24.41757,52.62712" />
      <path
         style="fill:#d38d5f;fill-opacity:1;stroke:none;stroke-width:5.2178297;stroke-miterlimit:4;stroke-dasharray:none;stroke-opacity:1"
         d="m 392.3021,608.04356 c -7.39429,0.0962 -2.98186,-8.79806 -13.18254,-8.28609 -35.71782,-2.35601 -23.2535,29.4391 -14.57565,42.17457 8.67791,12.73572 26.92119,-0.94854 42.23892,-11.90465 -2.18403,-16.89137 -4.23044,-3.10876 -4.92833,-16.17422 l -9.55239,-5.80961 c -9.59141,-8.91837 9.23024,-0.12017 0,0 z"
         id="path5691"
         inkscape:connector-curvature="0"
         sodipodi:nodetypes="cccccccc" />
      <path
         style="fill:#000000;fill-opacity:1;stroke:none;stroke-width:3.96875;stroke-miterlimit:4;stroke-dasharray:none;stroke-opacity:1"
         id="path5695"
         sodipodi:type="arc"
         sodipodi:cx="322.40436"
         sodipodi:cy="625.06335"
         sodipodi:rx="8.9067659"
         sodipodi:ry="12.836221"
         sodipodi:start="0.0014660504"
         sodipodi:end="6.2771116"
         sodipodi:open="true"
         d="m 331.31111,625.08217 a 8.9067659,12.836221 0 0 1 -8.90302,12.8174 8.9067659,12.836221 0 0 1 -8.91047,-12.80664 8.9067659,12.836221 0 0 1 8.86943,-12.86568 8.9067659,12.836221 0 0 1 8.94391,12.75814" />
      <path
         style="fill:#000000;fill-opacity:1;stroke:none;stroke-width:3.96875;stroke-miterlimit:4;stroke-dasharray:none;stroke-opacity:1"
         id="path5697"
         sodipodi:type="arc"
         sodipodi:cx="376.64264"
         sodipodi:cy="625.06335"
         sodipodi:rx="8.9067659"
         sodipodi:ry="12.836221"
         sodipodi:start="0.0014660504"
         sodipodi:end="6.2771116"
         sodipodi:open="true"
         d="m 385.5494,625.08217 a 8.9067659,12.836221 0 0 1 -8.90303,12.8174 8.9067659,12.836221 0 0 1 -8.91047,-12.80664 8.9067659,12.836221 0 0 1 8.86943,-12.86568 8.9067659,12.836221 0 0 1 8.94391,12.75814" />
      <g
         id="g5701"
         transform="translate(268.60559,527.39133)">
        <path
           transform="scale(-1,1)"
           style="fill:none;fill-opacity:1;stroke:none;stroke-width:4.76249981;stroke-miterlimit:4;stroke-dasharray:none;stroke-opacity:1"
           id="path5699"
           sodipodi:type="arc"
           sodipodi:cx="-107.56614"
           sodipodi:cy="148.59756"
           sodipodi:rx="25.934404"
           sodipodi:ry="26.589315"
           sodipodi:start="6.2206327"
           sodipodi:end="3.4562755"
           sodipodi:open="true"
           d="m -81.682457,146.93542 a 25.934404,26.589315 0 0 1 -14.360713,25.48277 25.934404,26.589315 0 0 1 -28.47772,-3.70033 25.934404,26.589315 0 0 1 -7.70613,-28.35008" />
      </g>
      <path
         d="m 310.6033,-701.33438 a 38.963902,13.455738 0 0 1 16.08585,-14.08295 38.963902,13.455738 0 0 1 43.83801,-0.002 38.963902,13.455738 0 0 1 16.09852,14.08122"
         sodipodi:open="true"
         sodipodi:end="0.22143639"
         sodipodi:start="2.9198455"
         sodipodi:ry="13.455738"
         sodipodi:rx="38.963902"
         sodipodi:cy="-704.29376"
         sodipodi:cx="348.61316"
         sodipodi:type="arc"
         id="path5703"
         style="fill:#ffffff;fill-opacity:1;stroke:#000000;stroke-width:4.76249981;stroke-miterlimit:4;stroke-dasharray:none;stroke-opacity:1"
         transform="scale(1,-1)" />
      <g
         transform="translate(254.88349,-98.024384)"
         id="g5709"
         style="fill:#ececec">
        <path
           inkscape:connector-curvature="0"
           d="M 40.259888,799.49413 H 150.17194 M 37.941967,776.33505 H 147.4481 M 39.758884,798.79853 c 2.472571,5.51874 0.264266,12.40829 -5.447768,16.99615 -5.712034,4.58786 -13.596676,5.80485 -19.450991,3.00228 -5.8543162,-2.80257 -8.3140202,-8.97161 -6.0679602,-15.21869 2.2460612,-6.24708 15.8585242,-12.01233 15.8585242,-12.01233 m 13.291278,-15.23087 c 0,-7.15598 -5.930157,-13.47815 -14.629384,-15.59645 -8.699225,-2.11831 -18.1402652,0.4609 -23.29053921,6.36275 -5.15027099,5.90185 -4.80956799,13.75101 0.840498,19.36344 5.65006501,5.61244 23.78814721,5.10113 23.78814721,5.10113 M 148.38248,778.50801 c -2.43521,-5.1558 -0.26027,-11.59226 5.36545,-15.87839 5.62572,-4.28612 13.39121,-5.42308 19.15706,-2.80483 5.76584,2.61826 8.18838,8.38159 5.97626,14.21782 -2.21212,5.83623 -15.61888,11.22231 -15.61888,11.22231 m -13.09043,14.22921 c 0,6.68535 5.84055,12.59173 14.40832,14.57073 8.56777,1.979 17.86614,-0.4306 22.93859,-5.9443 5.07245,-5.51371 4.73688,-12.84666 -0.8278,-18.08998 -5.56469,-5.24333 -23.42868,-4.76566 -23.42868,-4.76566"
           style="fill:#ececec;fill-opacity:1;fill-rule:nonzero;stroke:#000000;stroke-width:4.74700022;stroke-linecap:round;stroke-linejoin:miter;stroke-miterlimit:4;stroke-dasharray:none;stroke-opacity:1"
           id="path5705" />
        <path
           inkscape:connector-curvature="0"
           id="path5707"
           d="m 18.11572,817.22265 c -3.385367,-0.90667 -5.964604,-3.06297 -7.036715,-5.88282 -0.526478,-1.38475 -0.544451,-5.24841 -0.0307,-6.59969 1.007433,-2.64975 5.295207,-6.05351 12.188761,-9.67579 3.409745,-1.79168 3.590089,-1.94696 3.693869,-3.18029 0.21082,-2.50547 -0.251005,-2.71351 -6.69722,-3.01704 -8.312123,-0.39143 -13.3657417,-1.44574 -16.5426784,-3.45125 -2.82898056,-1.78586 -5.1528345,-6.80223 -4.6958091,-10.13659 0.9923039,-7.23963 8.7751972,-12.65153 18.1943125,-12.65153 5.502475,0 10.449679,1.80573 13.970778,5.09932 2.454696,2.29608 3.54375,4.26275 4.164483,7.52049 0.324815,1.70468 0.760095,2.89017 1.171719,3.19116 0.528416,0.38638 11.155923,0.4789 55.018622,0.4789 53.008518,0 54.369248,0.0175 54.586218,0.70109 0.35661,1.12358 2.14898,1.69305 3.41184,1.08403 1.15119,-0.5552 1.21263,-1.12374 0.65978,-6.10542 -0.21916,-1.97483 -0.12846,-2.55543 0.67247,-4.3049 1.76318,-3.85128 5.32635,-6.87293 9.94425,-8.43294 3.36841,-1.13792 8.58157,-0.92136 11.25739,0.46765 3.35296,1.74049 5.00138,4.24826 5.00138,7.60873 0,4.01543 -2.91357,7.02263 -10.55847,10.89777 -5.23432,2.65321 -5.74233,3.04596 -5.74233,4.43944 0,2.09256 0.78509,2.39207 6.93158,2.64441 6.32267,0.25952 12.20453,1.31082 15.16219,2.71002 3.11631,1.47425 5.26529,4.68127 5.59838,8.35469 0.17248,1.90214 0.0545,2.44914 -0.98232,4.55528 -4.7671,9.68335 -22.32902,11.67582 -30.96045,3.51258 -2.32063,-2.19477 -3.38527,-4.16028 -3.74107,-6.90671 -0.43821,-3.38264 5.41435,-3.05154 -56.497031,-3.19617 -30.243779,-0.0706 -55.575562,-0.2522 -56.292853,-0.40348 -1.822162,-0.38431 -2.770909,0.64605 -2.431556,2.64078 1.077935,6.33603 0.412973,9.05681 -3.14235,12.85747 -2.492692,2.6647 -5.442501,4.3895 -8.901495,5.20484 -2.922491,0.68889 -4.73515,0.68299 -7.374973,-0.0241 z"
           style="fill:#ececec;fill-opacity:1;fill-rule:nonzero;stroke:none;stroke-width:6.64680386;stroke-linecap:round;stroke-linejoin:bevel;stroke-miterlimit:4;stroke-dasharray:none;stroke-opacity:1" />
      </g>
      <path
         id="path5711"
         style="fill:#ffffff;fill-opacity:1;stroke:#000000;stroke-width:4.76249981;stroke-miterlimit:4;stroke-dasharray:none;stroke-opacity:1"
         d="m 399.78301,658.79918 a 27.971889,24.286768 0 0 1 -3.52729,29.30523 27.971889,24.286768 0 0 1 -33.48522,4.78466 27.971889,24.286768 0 0 1 -14.15738,-26.7783 m -51.1699,-7.31159 a 27.971889,24.286768 0 0 0 3.52728,29.30523 27.971889,24.286768 0 0 0 33.48523,4.78466 27.971889,24.286768 0 0 0 14.15738,-26.7783"
         inkscape:connector-curvature="0" />
      <path
         d="m 290.96131,652.28718 a 59.098843,50.289448 0 0 1 24.39835,-52.63356 59.098843,50.289448 0 0 1 66.49169,-0.009 59.098843,50.289448 0 0 1 24.41757,52.62712"
         sodipodi:open="true"
         sodipodi:end="0.22143639"
         sodipodi:start="2.9198455"
         sodipodi:ry="50.289448"
         sodipodi:rx="59.098843"
         sodipodi:cy="641.22681"
         sodipodi:cx="348.6131"
         sodipodi:type="arc"
         id="path5713"
         style="fill:none;fill-opacity:1;stroke:#000000;stroke-width:4.76249981;stroke-miterlimit:4;stroke-dasharray:none;stroke-opacity:1" />
      <path
         style="fill:#ffffff;fill-opacity:1;fill-rule:nonzero;stroke:none;stroke-width:10.76268005;stroke-linecap:round;stroke-linejoin:bevel;stroke-miterlimit:4;stroke-dasharray:none;stroke-opacity:1"
         d="m 311.9901,663.91897 c -4.34814,-0.86806 -8.08405,-1.60105 -8.30202,-1.62885 -0.21797,-0.0279 0.0785,-1.19815 0.65881,-2.60077 1.3429,-3.24593 1.34327,-6.34984 0.001,-8.56042 -0.57975,-0.95482 -1.0541,-1.91801 -1.0541,-2.14043 0,-0.2224 5.33114,-0.40439 11.84697,-0.40439 h 11.84696 l -1.53698,3.13968 c -1.76062,3.5965 -2.78411,8.83371 -2.31728,11.8576 0.30728,1.99039 0.24974,2.06904 -1.45888,1.99403 -0.97833,-0.0429 -5.33636,-0.78833 -9.6845,-1.65645 z"
         id="path5715"
         inkscape:connector-curvature="0" />
      <path
         style="fill:#ffffff;fill-opacity:1;fill-rule:nonzero;stroke:none;stroke-width:9.38444996;stroke-linecap:round;stroke-linejoin:bevel;stroke-miterlimit:4;stroke-dasharray:none;stroke-opacity:1"
         d="m 376.27892,661.08701 c 0.14249,-3.15199 -0.0287,-3.95097 -1.56063,-7.28077 l -1.7207,-3.74024 h 11.29083 11.29081 l -1.2535,1.86206 c -1.5015,2.23039 -1.55548,3.73271 -0.25118,6.98981 0.5394,1.34704 0.92153,2.49403 0.84915,2.5489 -0.0724,0.0549 -3.78023,0.66897 -8.2397,1.3647 -4.45946,0.69568 -8.66093,1.38441 -9.33661,1.53046 -1.21887,0.26354 -1.22726,0.23785 -1.06847,-3.27492 z"
         id="path5717"
         inkscape:connector-curvature="0" />
      <g
         transform="translate(-1.7028319e-5)"
         id="g5833">
        <ellipse
           ry="15.979785"
           rx="29.077971"
           cy="659.39087"
           cx="348.61313"
           id="ellipse5719"
           style="fill:#000000;stroke-width:0.26458332" />
        <path
           sodipodi:nodetypes="sssss"
           inkscape:connector-curvature="0"
           id="path5721"
           d="m 363.807,652.81559 c 0,3.90632 -6.54057,3.92946 -14.93193,3.92946 -8.39136,0 -15.45586,-0.0231 -15.45586,-3.92946 0,-3.90632 6.80254,-7.07302 15.1939,-7.07302 8.39136,0 15.19389,3.1667 15.19389,7.07302 z"
           style="fill:#ffffff;stroke-width:0.12724242" />
      </g>
      <path
         id="path4509-2"
         d="m 416.93367,581.0421 c -4.13779,0.009 -7.84732,1.57527 -10.03868,4.18941 -2.0828,2.48469 -4.25093,5.41468 -5.11958,8.58346 l -8.94414,14.22859 7.28636,7.00577 6.35,-10.10223 7.28639,0.30644 c 7.82137,7.2092 31.40167,20.9962 35.75492,15.74065 4.35361,-5.25522 -12.16433,-27.56891 -19.96933,-34.79788 -3.90249,-3.61449 -8.46817,-5.16305 -12.60594,-5.15421 z"
         style="fill:#ffffff;fill-opacity:1;stroke:#000000;stroke-width:4.76249981;stroke-miterlimit:4;stroke-dasharray:none;stroke-opacity:1"
         inkscape:connector-curvature="0" />
      <path
         inkscape:connector-curvature="0"
         style="fill:#d38d5f;fill-opacity:1;stroke:#000000;stroke-width:4.76249981;stroke-miterlimit:4;stroke-dasharray:none;stroke-opacity:1"
         d="m 278.87926,581.0421 c 4.13779,0.009 7.84732,1.57527 10.03868,4.18941 2.0828,2.48469 4.25093,5.41468 5.11958,8.58346 l 8.94414,14.22859 -7.28636,7.00577 -6.35,-10.10223 -7.28639,0.30644 c -7.82137,7.2092 -31.40167,20.9962 -35.75492,15.74065 -4.35361,-5.25522 12.16433,-27.56891 19.96933,-34.79788 3.90249,-3.61449 8.46817,-5.16305 12.60594,-5.15421 z"
         id="path5829" />
    </g>
  </g>
</svg>
